<svg width="14" height="10" viewBox="0 0 14 10" fill="none" xmlns="http://www.w3.org/2000/svg">
<path d="M5.44863 9.28019C5.31737 9.28045 5.18734 9.2548 5.06602 9.20469C4.94469 9.15458 4.83446 9.081 4.74163 8.98819L0.499634 4.74519C0.404061 4.65301 0.327803 4.54272 0.275309 4.42075C0.222816 4.29878 0.195138 4.16758 0.193892 4.03481C0.192645 3.90203 0.217854 3.77033 0.268048 3.6474C0.318242 3.52447 0.392416 3.41277 0.486241 3.31881C0.580067 3.22485 0.691664 3.15052 0.814524 3.10015C0.937383 3.04979 1.06904 3.02439 1.20182 3.02545C1.3346 3.02651 1.46584 3.054 1.58788 3.10632C1.70992 3.15864 1.82032 3.23474 1.91263 3.33019L5.44763 6.86519L11.8126 0.502187C12.0001 0.314547 12.2545 0.209078 12.5198 0.208984C12.7851 0.208891 13.0395 0.314179 13.2271 0.501687C13.4148 0.689195 13.5202 0.943564 13.5203 1.20883C13.5204 1.4741 13.4151 1.72855 13.2276 1.91619L6.15563 8.98819C6.06281 9.081 5.95258 9.15458 5.83125 9.20469C5.70993 9.2548 5.5799 9.28045 5.44863 9.28019Z" fill="#2FAB73"/>
</svg>
